<svg id="Layer_1" data-name="Layer 1" xmlns="http://www.w3.org/2000/svg" viewBox="0 0 1230.74 841.91"><defs><style>.cls-1{fill:#f7ef94;}.cls-2{fill:#f7e506;}.cls-3,.cls-6{fill:none;}.cls-4{fill:#666;}.cls-5{fill:red;}.cls-6{stroke:red;stroke-miterlimit:10;}.cls-7{fill:#ff7676;}.cls-8{fill:#68d391;}</style></defs><title>maha_covid_tracker_logo</title><path class="cls-1" d="M679.21,1191c3-1.93,3.25-5.35,2-8.47-3.14-8.14-6.74-16.1-10.14-24.15a8,8,0,0,1-.19-1.83l3.82,1.85c-1.51-5.58.51-12.39-6.13-15.92,0-3.63.81-7.6-.23-11s-3.94-6-6.11-9.17l7.55-4.49c-6.64-.92-7.73-5.3-8.75-9.46-.35-1.46.65-3.23,1-4.87a5.83,5.83,0,0,0,.23-2.77c-3.38-9-6.62-18-10.45-26.85-1.18-2.7-3.67-4.69-1-6.32-1.83-4.23-3.51-8-5.08-11.81a29.75,29.75,0,0,1-1.58-5,12.33,12.33,0,0,1-.29-4.51c.8-4.32.1-7.83-3.45-11-1.44-1.27-1.51-4.1-2.47-7l13.73,7.91c-.74,5.75.31,7.45,6.18,9-1.66-6.47-3.25-12.6-5.14-20-3.52,4.37-5.77,2.29-7.63.35-2.8-2.92-5.27-6.16-8.46-8.44-.62-3.28-.79-6.74-2-9.8-1.72-4.38.1-8.22.73-12.3a11.21,11.21,0,0,0-.24-5.38c-1.06-2.8-3.17-5.24-4-8.07a62.53,62.53,0,0,1-2-11.32c-.29-2.66.25-5.4-.07-8-.4-3.42.79-4,3.84-3.14a7.16,7.16,0,0,0,5.31-.71c1.82,1.25,3.63,2.51,5.5,3.81l4.69-4.24c-2.5-1.58-6.06-2.29-4.79-6.35a5.53,5.53,0,0,0-2.51-.83c-5.21.81-5.56.58-6.16-5.19,3.33-.46,6.62-1.11,5.68-5.91-.1-.49,2-1.44,3.08-2.13,2.31-1.47,4.63-2.91,7-4.4-6.91-5.43-6.49-12.72-7.59-19.44-3.1,1.33-4.25,3.86-3.76,8.22.71,6.3-.82,8.77-6.84,9.9-3.5.65-5.11,2.62-6.14,5.78a72.67,72.67,0,0,1-3.24,7.31c-.69-2.33-2-4.66-1.89-6.9a13.66,13.66,0,0,1,2.75-7.17c1.33-1.7,2-2.41.58-4.46-.91-1.37-.86-3.64-.67-5.45.31-3.12-.1-5.59-3.09-7.33-.82-.48-1.72-2.47-1.39-3,1.56-2.33,1-4-.5-6.1-.87-1.28-.67-3.43-.61-5.17a43,43,0,0,1,.84-5.39c4.88-2.53,9.74-3,14.42,1.52.16-5.55-3.85-9.09-8.65-8.55-5.48.63-8.21-1.43-9-6.8-.21-1.48-.23-3-.57-4.46a33.64,33.64,0,0,0-1.54-4l9.85-7a19.32,19.32,0,0,0-3.49-.66c-7.68.46-10.57-3.3-8.45-11.06.11-.43.37-.9.28-1.28-1.32-5.66-2.5-11.37-4.1-16.95-1.15-4.07-4.26-8.09-4-11.94.36-4.72,2-9.4,1.43-14.33,0-.36.78-.88,1.28-1.22,4.34-3,5.48-7,3.81-11.88-1.09-3.16-.88-5.83,1.54-8.34a4.85,4.85,0,0,0,1.29-3.23c-.22-4.55,3.36-5.72,6.36-7.22.73-.36,2.36.65,3.36,1.34,4.11,2.87,5.59,2.48,8.25-1.87,1.08-1.77,2.77-3.16,4.19-4.73.87,2,2.3,3.88,2.51,5.92.42,4.07,2.19,6.71,5.92,8.33a10.19,10.19,0,0,1,3,2.7c1.8,2,3,3,5.79.52s6.55-.4,9.22,1.72c5.08,4,5.74,3.82,8.41-2.12.85-1.89,3.06-3.19,4.7-4.7s3.8-2.86,5.22-4.66c2.8-3.55,5.71-5.77,10.39-3.28,2.94,1.56,4.74.48,5.71-2.73,2.43-8,4.35-15.88-1.37-22.4,3.15-5.79,6.14-11,8.81-16.28,2.78-5.54,2-9-2.54-13.36-1.84-1.76-3.85-3.34-6.44-5.57l9.1-7.06,2.14,1.9c1.57,1.41,2.92,3.46,4.76,4.11,5.72,2,10.74,4.3,14,10.06.94,1.64,5.92,2,8.66,1.34a34.51,34.51,0,0,0,12.58-5.5c3.31-2.49,4.8-6.7.21-11.09l5.83-1.72c5.21-1.51,8.35-5.15,8.06-10.53-.25-4.6-1.38-9.15-2.15-13.73a66.2,66.2,0,0,0-1.68-8.79c-.55-1.77-1.76-4.26-3.18-4.67-4.71-1.33-7.37-4.6-9.48-8.5-1.66-3-3.47-4.25-7.24-3.44-7.92,1.71-14.07-3.07-15.9-12.32,1.35.79,2.29,1.29,3.17,1.86,5.69,3.67,8.81,3.3,13.75-1.43.94-.89,2.5-1.11,3.46-2,2-1.83,4.57-3.59,5.42-5.92,1.13-3,2.7-3.92,5.61-4,7.24-.21,9.63-2.45,10.13-9.76.28-4.15,1.94-7.12,5.54-9.2a25,25,0,0,0,5.45-4c3.42-3.53,6.69-6.55,12.16-3.73,1.2.62,3.18-.26,4.8-.48,1.93-.26,3.86-.87,5.76-.78,6.92.34,12.09-6.68,9.79-14.15a40.92,40.92,0,0,1-4.73,2.52c-1.49.57-3.72,1.54-4.64.91-6.57-4.55-14.3.61-20.94-2.75a4,4,0,0,0-3.09.22c-5.39,2.75-10.81,5.16-17,5.5-1.38.07-2.64,2.14-4.35,3.63-2.74-4.71-5.64-9.24-8-14-.56-1.16.69-3.21,1.14-5,6.44,3.11,7,3,12.8-3.67-7.19-4-8.41-11.29-9.95-18.63,5.28-2,10.69-3.78,15.89-6.06a112.44,112.44,0,0,0,12.81-6.74c4.37-2.65,8.12-4.37,13.1-.51,3.63,2.81,8.25,1.27,11.86-1.31,4.54-3.24,8.88-6.78,13.19-10.32s5.13-3.3,7,1.72c.87,2.3,3,4.07,4.19,6.29,1.48,2.82,3.09,5.75,3.69,8.82.84,4.26.85,8.69,1.11,13,.39,6.56,3.95,11.24,8.85,15.13a9.29,9.29,0,0,0,2.76,1.47c5.35,1.82,10.64,4,16.13,5.2a26.37,26.37,0,0,0,11.42.21c10.3-2.43,25.6,3.93,30.07,13.43a18.17,18.17,0,0,0,11.73,10.36c12.3,3.86,24.51,7,37.69,6.35,8.92-.45,17.95,1.74,26.93,1.66,6.86-.06,13.75-1.58,20.54-2.91a18.65,18.65,0,0,1,12.25,1.26,21.22,21.22,0,0,0,9.35,1.69c3.47-.09,6.3.2,8,3.57,2.08,4.08,5.59,7.89,2.44,12.94-.8,1.28-2.08,2.38-2.47,3.76-.48,1.71-.78,5-.28,5.23,5.11,1.81,3.75,10.5,11,10a32.45,32.45,0,0,1,10.42.61c10.31,2.72,21-2.29,24.75-12,2.17-5.59,6.31-2.45,9.6-1.83,5.89,1.1,10.3-1.94,10.38-7.94a21.35,21.35,0,0,0-1.15-8.42c-1.5-3.53-.49-5.27,2.24-7.59a126.74,126.74,0,0,0,12.71-12.78,7.42,7.42,0,0,0,1.27-5.41c-.85-5.57.61-8.35,5.31-10.88,6.21-3.34,12.28-7,18.18-10.81,6.37-4.16,12.36-8.52,20.82-6.77,3.56.73,7.56,0,11.23-.75,1.78-.35,3.24-2.23,4.89-3.35s3.15-2.69,4.91-3c4.71-.8,9.52-1,14.3-1.43.86-.07,2.27-.08,2.55.39,3.6,6.1,12.44,8.88,10.74,18.58-.56,3.23,2.59,7.11,4.21,11.09a41.18,41.18,0,0,0-5-.89c-4.6-.34-9.25-1-13.79-.56-3.94.37-4.73,2.86-2.74,6.09,2.91,4.73,5.86,9.44,8.77,14.17.56.91,1,1.88,1.66,3.12,2-2.18,3.11-3.36,4.65-5,2.82,6.14,8.07,4.54,12.89,4.49,1.5,0,3.18-.24,4.47.32,6.5,2.84,11.42.92,15.33-5,11.6,6.8,22,1.14,32.25-3.3,4.81-2.07,9.16-5.24,13.69-8,.76-.45,1.87-1,2-1.7,1.21-5.26,6.37-6.18,9.79-9a5.18,5.18,0,0,1,4.4-.68c3.41,1.41,5.85.5,8-2.18,2.37-3,4.19-2.5,5.44.9,1.19,3.25,2.35,6.52,3.35,9.83.74,2.45,1.85,3.41,4.18,1.7,4.76-3.48,9.13-2.8,14.21.06a26.12,26.12,0,0,0,21.27,2.29c6.36-1.92,13.38-1.62,20.08-2.48a29.42,29.42,0,0,0,5.26-1.73,50.9,50.9,0,0,1-2.49-4.51c-.79-1.83-2.38-4.38-1.73-5.5,1-1.73,3.76-3.7,5.57-3.52,9.31.91,16.8-2.28,23.42-8.54a28,28,0,0,1,6.68-4.44,6,6,0,0,1,4.23-.26c6.47,2.19,12.91,2.87,19.55.75,3.81-1.22,6.39.21,7.76,4,1.12,3.12,2.46,6.16,3.71,9.23,1.6,4,4.89,5.92,9,4.67a62.47,62.47,0,0,0,9.91-4.32c6.31-3.24,12.07-3.22,17.43,2a29.16,29.16,0,0,0,5.47,4c2.62,1.54,5.21,1.66,7.15-1.2s4.3-3.38,7.42-2c4,1.82,7.65.87,10.83-2.09,1-.92,2.08-1.75,3.08-2.67,8.69-8,19.09-7,26.63,2.21,4.83,5.92,10.06,11.52,15.26,17.14a19,19,0,0,0,4.44,3c4.23,2.51,8.71,4.66,12.68,7.51,3.71,2.67,6.88,2.32,10.08-.83,1.65,6.14.12,10.83-4.45,13.39a56,56,0,0,1-9.86,4.28c-5.85,1.93-10.42,8.29-10.21,14.43.14,4.49-.35,9,0,13.49.55,6.26,1.79,7.39,8,8.13,2.89.35,4.34,1.6,4.73,4.44,1.13,8.35,2.37,16.68,3.54,25,.39,2.74-.39,4.61-3.43,5.36a10.92,10.92,0,0,0-5.18,2.62c-1.07,1.14-2,4.15-1.44,4.73a6.82,6.82,0,0,0,5.3,1.76c1.89-.38,3.44-2.31,5.22-3.42,3.54-2.19,6-.89,5.76,3.29-.34,6.46-.82,12.93-1.68,19.33-.49,3.64-.34,6.68,2,9.74,2.72,3.5,1.91,4.94-2.53,6a7.66,7.66,0,0,0-3.22,1.47c-4.35,3.84-8.87,7.19-14.93,7.94-2.22.27-4.73,7.49-4,10.54.83,3.45,3.9,5.22,7.63,4.41,1.18-.26,2.35-.58,3.53-.84,4.9-1.07,8.47,1.41,8.66,6.42.22,6,.17,12,0,18-.09,4.29-2.16,5.3-5.86,3.13-.9-.53-1.92-1.66-2.68-1.51-2,.39-4.61.83-5.49,2.2-1.43,2.22,0,4.35,2.67,5.05,1.72.44,3.49.71,5.53,1.12-1,5.81-4.12,9.2-10.19,9.8l.07,1.26c2.91,1.2,5.8,2.47,8.77,3.46.24.08,1.07-1.81,1.72-2.71,1-1.35,1.81-3.24,3.17-3.82,2.17-.94,4.24,0,4.66,2.68.63,4,3.16,6.26,6.77,7.75,7.14,2.93,8.31,4.71,7.49,12.81-.34,3.31.63,5,3.8,5.2,5.76.29,10.23,3.25,14.63,6.52,1.56,1.17,3.47,1.89,4.93,3.16s4.24,3.82,3.88,4.57c-1.21,2.49-3.48,4.51-5.52,6.53-.54.54-1.74.37-2.61.6-4.41,1.13-5.16,2.83-2.29,6.21,2.25,2.64,2.24,4.38-.37,6.82-1.92,1.78-2.94,4.51-4.46,6.74-2.21,3.24-4.84,3.56-6.71.29-2-3.57-4.61-4.94-8.5-4.34s-4.7-2-5.33-5.11c-.32-1.6-1.38-3-2.11-4.56-1.48.94-3.31,1.58-4.38,2.86-3.36,4.06-6.34,8.43-9.67,12.52-1.93,2.38-4.31,4.39-6.35,6.69a11.38,11.38,0,0,0-2.34,3.74c-1.57,4.66-2.92,9.38-4.37,14.08-.18.57-.32,1.48-.7,1.62-7.94,2.85-5.22,10.33-6.59,15.84-.64,2.56.68,5.76,1.62,8.49.62,1.79,2.26,3.19,3.28,4.86,3.23,5.26,2.43,8.08-3,10.83-2.43,1.24-5.12,2.27-4.33,5.91a1.74,1.74,0,0,1-.52,1.16c-3.19,3.6-14,6.05-18.51,3.79-6.46-3.24-12.8-6.74-19-10.4-4-2.37-4.26-4.72-1.28-8.13a12.94,12.94,0,0,0,3.06-12.6,61.09,61.09,0,0,1-1.34-8.46c-.59-4.86-2.27-6.64-7.23-6.76-2.81-.07-5.28-1-5.09-3.8a8.35,8.35,0,0,1,3.46-5.9c6.51-3.73,6.4-3.48,5.72-11.31-.2-2.28.94-5,2.27-7,4.16-6.22,4.41-12.64,2-19.45-1.94-5.56-5.53-9.43-11.51-10.25-3.43-.46-5.57-2-6.61-5.17a8.07,8.07,0,0,0-.55-1.24c-3.91-7.41-5.54-7.72-12.87-3.32-1.92,1.15-4.64,2.23-6.63,1.76-3.82-.9-5.58.7-7.25,3.58-3.32,5.75-3.87,5.78-9,1.37-1.23-1.07-2.6-2-4.1-3.12-1.18,1-2.11,2-3.18,2.73-3,2.1-6.14,2.71-8.91-.38-3.43-3.82-7.41-5.83-12.75-5.54-2,.1-4.37-1.17-6-2.54-6.9-5.91-19.51-4.65-24.94,2.7-1.55,2.09-3.27,4.06-4.63,5.74-3.1-2.88-5.43-5.52-8.23-7.48-1.89-1.32-4.41-1.88-6.72-2.43-4.74-1.14-6.28-4.5-7-8.85-.72-4.17-1.63-8.54-6.58-9.9-2-.54-4.29-1.12-6.07-.53-3.48,1.16-6,.53-8.63-1.89-5.54-5.09-12.36-5.6-18.57-2.46-6,3-10.38,1.48-14.86-2.18-2.78-2.27-5.44-4.68-8.16-7l-1.54.47a62.83,62.83,0,0,0,1.22,7.67c1.45,5,3.73,9.92,4.63,15,.49,2.83-.2,6.77-1.94,8.92-4.58,5.65-5.74,11.86-5.13,18.68.42,4.62-.81,7.16-6,8s-9.45,9.9-8.28,16a14.38,14.38,0,0,1,.64,2.63c0,1.81.3,4.54-.68,5.22a7.18,7.18,0,0,1-5.84.52c-3.23-1.26-6.07-3.41-9.51-.45-.24.2-2.48-1.25-3.14-2.32-4.72-7.72-15.83-7.88-20.26.07-.63,1.13,1.23,3.66,2.21,6.25-6.17,3.63-4.5,11.51-6.15,18.42l-4.06-1.23c-2.23,3.4-4.53,6.53-6.41,9.89-1.44,2.56,1.11,6.65,4.8,9.2,6.18,4.27,12.19,8.8,19.31,14-2.84,1.23-4.74,2.64-6.73,2.78-4.32.32-6.25,3-6.94,6.54-.83,4.3-2.77,7.54-6.57,9.75a12.16,12.16,0,0,0-6.12,9.05,47,47,0,0,1-1.65,7c-1.82,5.78-3.41,6.74-9.47,6.15a6.23,6.23,0,0,0-2.24.05c-3,.88-8,10.83-6.65,13.65,1.46,3.07,0,4.71-2.23,6.44-4.91,3.74-4.75,5.53.32,9.16,1.07.77,1.67,2.18,2.49,3.3-1.12.57-2.24,1.16-3.37,1.72-2.13,1-4.32,2-6.38,3.14-2.53,1.42-4.77,1.92-6.64-1a4.49,4.49,0,0,0-1.53-1.64c-5-2.42-8.26-5.38-7.09-11.9.58-3.28-4.87-7.45-8.14-7.1-4.16.44-6.12,3.45-7.28,7.09a4.12,4.12,0,0,0-.11,2.25c2.32,7.86-1.88,11.25-8.49,14.13-3.39,1.47-5.74,5.29-8.62,8a15.91,15.91,0,0,1-3.09,2.34,30.72,30.72,0,0,1-5.27,2.45c-2,.67-4.2,1.54-6.21,1.34-7-.69-10.45,2.37-10.28,9.61.14,6.17.23,12.35.16,18.52a21.17,21.17,0,0,1-1,6.22c-1.41,4.31-4,5.13-8,3.14-2.57-1.28-5.36-2.13-8-3.17a75.67,75.67,0,0,0,1,8.41c.59,2.69.1,4.45-2.66,5.26s-3.64,2.47-3.86,5.33c-.21,2.61-1.57,5.14-2.63,8.34l-11-12.74-3.17,7.24-3.62-4.85c-3.11,3-6.2,5.72-8.84,8.81-.61.72.32,2.76.61,4.7l-19.52,9.82a31.65,31.65,0,0,0,3.26,5.15c2.21,2.41,2.71,4.57.25,7s-2.09,5.23-.12,7.75,4.26,4.69,6.17,7.2c.8,1.05,1.64,2.85,1.26,3.83s-2.2,2-3.48,2.14c-1.71.2-3.51-.5-5.28-.68-1.42-.14-3.22-.66-4.23,0-3.87,2.46-4.81.13-5.34-2.93-.62-3.59-2-4.32-5.17-2.14-7.66,5.34-7.85,5.22-11.22-3.56a7.22,7.22,0,0,0-2.64-3.57c-.21,2-.39,3.91-.63,5.85s-.52,3.82-.64,4.72c-3.57.59-6.4,1-9.2,1.53-1.76.36-3.45,1.1-5.21,1.46-5,1-7.73-.91-8.81-5.93-.38-1.78-1-3.51-1.8-6.24-2.92,2.46-5,4.13-7,5.88s-3.35,1.87-4.27-1c-1-3.23-3.07-4.42-6.63-3.5-6.35,1.64-8.36-4-11.63-7.48a10.68,10.68,0,0,1-1.35-2.23c-2.56,5.44-5.09,10.75-7.57,16.09-.3.66-.68,1.65-.41,2.16,2,3.77,3.76,7.88,6.53,11,2.19,2.5,3.26,4.46,1.95,7.56-1.85,4.41-1.61,8.2,2.18,11.92,1.5,1.49,1.66,4.84,1.59,7.32-.09,3.54-1.06,7.05-1.47,10.59s-2.91,3.3-4.45,1.84c-4.77-4.54-8.64-4.68-12.87.73-.68.88-4.28.58-5.67-.39-3.47-2.42-6.72-2-10.32-.84a91.06,91.06,0,0,1-10.85,2.83c-3.22.58-5,2-4.66,5.36s-.83,6-3.74,7.64c-2.44,1.36-5,2.6-6.77-1.18a3.12,3.12,0,0,0-2-1.6c-4.21-.64-7.3-2.4-8.7-6.77-.28-.85-2.15-1.42-3.38-1.68a19.07,19.07,0,0,0-6.25-.61c-1.43.2-3.68,1.4-3.87,2.46-.75,4.24-3.44,6.47-6.83,8.46-5,2.95-5.21,4-3.23,9.51.51,1.42.24,3.13.32,4.71a30.11,30.11,0,0,1-4.34-1.15c-2.48-1-20,3.73-20.8,6.18-1.25,3.67-1.58,7.66-2.84,11.33-.72,2.07-2.4,3.86-3.86,5.6-1.22,1.47-2.85,2.6-4.11,4.06-2.19,2.55-4,2.34-5.65-.48-1.06-1.83-2-3.71-3-5.57-2.24-4.17-6.59-4.63-10.22-4.19-1.86.22-3.83,3.78-4.82,6.21-2.08,5.13-4.42,6.19-9.79,4.83-1.49-.37-3.65,2-5.87,3.25-.8-.34-2.43-1.57-4-1.46-1,.08-2.23,2-2.55,3.34-.23.94.63,2.5,1.47,3.26,2.67,2.42,5.57,4.59,8.37,6.87,3,2.43,4.14,5.14,1.36,8.52a3.85,3.85,0,0,0-1.08,2c-.11,2.84-.67,5.94.28,8.42.46,1.19,3.94,1.21,6.86,2,.76,2.55,3.29,3.55,7,2.91,3.18-.55,4.22,1.72,4.52,4.38.52,4.71,1.24,9.42,1.35,14.15.07,3.42-2.43,2.3-4.15,1.43-3-1.52-5.73-2.74-8.27.87-2.4,3.41-1.91,5.52,2.22,5.86,4.28.36,5.1,2.5,5.17,6.24.1,5.86-2.44,10.22-6.93,13.51-3.07,2.26-4,4.74-2.13,8.12,1.39,2.53.34,4.19-1.29,6.4a21.37,21.37,0,0,1-10.86,8.23c-2.86.92-4.89,1.08-5.85-2.57-.24-.93-2.67-2.27-3.37-1.93-2.51,1.22-6,2.64-6.74,4.79-1.32,4-5.53,6.38-5.47,11.4,0,1.69-4.79,4.53-7.63,4.88-3.37.4-6.4-2.26-6.51-6.15-.17-5.87-1.86-10.1-8.2-11.77-1.3-.34-1.88-3.29-2.87-5s-1.94-3.12-2.92-4.68c-1.28,1.34-3.18,2.45-3.74,4-1.52,4.31-4.58,5.39-8.69,5.87a35.05,35.05,0,0,0-9.66,2.8c-3.15,1.38-3.77-.27-4.83-2.61-3-6.63-6.08-13.27-9.66-19.61-1-1.85-4-2.52-5.84-4s-4.06-3.08-4.91-5.13c-3-7.36-4.7-15.16-6.67-22.89-2.24-8.83-5.6-17.38-8.07-26.17-.49-1.71.83-3.93,1.31-5.91-2.86-.65-8.53-11.65-9.2-18.85h5.85l-5.55-7c3.79-1.62,5-2.79,2.23-7.34a26.17,26.17,0,0,1-3.76-18.23c.58-3.19-1.4-6.78-1.85-10.23-.74-5.7-1.14-11.45-1.8-17.16A18.58,18.58,0,0,0,679.21,1191Z" transform="translate(-386.26 -533.22)"/><path class="cls-2" d="M1611.73,846.74c-.5-.74-1.43-.55-4.93-3.16-4.4-3.27-8.87-6.23-14.63-6.52-3.17-.16-4.13-1.89-3.8-5.2.82-8.09-.35-9.88-7.49-12.81-3.61-1.49-6.14-3.7-6.77-7.75-.42-2.7-2.49-3.62-4.66-2.68-1.36.58-2.18,2.47-3.17,3.82-.65.9-1.47,2.79-1.71,2.71-3-1-5.87-2.26-8.78-3.46l-.07-1.26c6.07-.6,9.17-4,10.19-9.8-2-.4-3.81-.67-5.53-1.12-2.72-.7-4.1-2.83-2.67-5,.88-1.38,3.53-1.82,5.49-2.21.76-.15,1.78,1,2.68,1.51,3.7,2.17,5.77,1.16,5.86-3.12.14-6,.19-12,0-18-.19-5-3.76-7.49-8.66-6.42-1.18.26-2.35.58-3.53.84-3.73.81-6.8-1-7.63-4.41-.74-3.05,1.77-10.27,4-10.54,6.06-.75,10.58-4.1,14.93-7.94a7.78,7.78,0,0,1,3.22-1.47c4.44-1.11,5.25-2.55,2.53-6-2.37-3.06-2.52-6.1-2-9.74.86-6.4,1.34-12.87,1.68-19.33.22-4.18-2.22-5.48-5.76-3.29-1.78,1.11-3.33,3-5.21,3.42a6.83,6.83,0,0,1-5.31-1.76c-.58-.57.37-3.59,1.44-4.73a10.82,10.82,0,0,1,5.18-2.61c3-.76,3.82-2.63,3.43-5.36-1.17-8.35-2.41-16.68-3.54-25-.39-2.85-1.84-4.1-4.73-4.45-6.24-.74-7.47-1.87-8-8.13-.39-4.46.1-9,0-13.49-.21-6.14,4.36-12.5,10.21-14.43a56,56,0,0,0,9.86-4.28c4.57-2.56,6.1-7.25,4.45-13.39-3.2,3.15-6.37,3.5-10.08.83-4-2.85-8.45-5-12.68-7.51a19,19,0,0,1-4.44-3c-5.2-5.62-10.43-11.22-15.26-17.14-7.54-9.23-17.93-10.22-26.63-2.21-1,.92-2.09,1.75-3.08,2.67-3.18,3-6.8,3.91-10.83,2.09-3.11-1.4-5.5-.86-7.42,2s-4.53,2.74-7.15,1.2a29,29,0,0,1-5.47-4c-5.36-5.2-11.12-5.22-17.43-2a62.08,62.08,0,0,1-9.91,4.32c-4.12,1.25-7.41-.7-9-4.67-1.25-3.07-2.59-6.11-3.71-9.23-1.36-3.84-4-5.27-7.76-4.05-6.64,2.12-13.08,1.44-19.55-.75a6,6,0,0,0-4.23.26,28,28,0,0,0-6.68,4.44c-6.62,6.26-14.11,9.46-23.42,8.54-1.81-.17-4.56,1.79-5.57,3.52-.65,1.12.94,3.67,1.73,5.5a50.9,50.9,0,0,0,2.49,4.51,28.64,28.64,0,0,1-5.26,1.73c-6.7.86-13.72.56-20.08,2.48a28.68,28.68,0,0,1-8.29,1.27c-50.28,25.6-123,70.42-187.34,146.82-74.39,88.4-79.3,150-129.77,214.7-49.39,63.34-146.69,135.11-359.89,151.3,1.18,2.17,3.15,3.91,7,4.45l-7.55,4.49c2.17,3.12,5.09,5.85,6.11,9.17s.23,7.36.23,11c6.64,3.53,4.62,10.34,6.14,15.92l-3.83-1.85a8.58,8.58,0,0,0,.19,1.83c3.4,8,7,16,10.14,24.15,1.2,3.12,1,6.54-2,8.47a18.8,18.8,0,0,1,1.28,3.7c.66,5.71,1.06,11.46,1.8,17.16.45,3.45,2.43,7,1.85,10.23a26.16,26.16,0,0,0,3.76,18.23c2.73,4.55,1.56,5.72-2.23,7.34l5.55,7H684c.67,7.2,6.33,18.2,9.19,18.86-.48,2-1.8,4.19-1.31,5.9,2.48,8.79,5.83,17.34,8.07,26.18,2,7.72,3.64,15.52,6.67,22.88.85,2,3.07,3.63,4.91,5.13s4.8,2.18,5.84,4c3.58,6.34,6.64,13,9.66,19.61,1.06,2.34,1.68,4,4.83,2.61a35.05,35.05,0,0,1,9.66-2.8c4.11-.48,7.17-1.56,8.69-5.87.56-1.59,2.46-2.7,3.74-4,1,1.56,2,3.09,2.92,4.68s1.57,4.66,2.87,5c6.34,1.67,8,5.9,8.2,11.77.11,3.89,3.15,6.56,6.51,6.15,2.84-.34,7.65-3.19,7.63-4.88-.06-5,4.15-7.37,5.47-11.4.7-2.15,4.23-3.57,6.74-4.79.7-.34,3.13,1,3.37,1.93,1,3.65,3,3.5,5.86,2.57a21.42,21.42,0,0,0,10.85-8.22c1.63-2.22,2.68-3.88,1.29-6.41-1.87-3.38-.94-5.86,2.13-8.12,4.49-3.29,7-7.65,6.93-13.51-.07-3.74-.89-5.88-5.17-6.24s-4.62-2.45-2.22-5.85c2.54-3.62,5.26-2.4,8.27-.88,1.72.87,4.22,2,4.15-1.43-.11-4.72-.83-9.44-1.35-14.15-.3-2.66-1.34-4.93-4.52-4.38-3.66.64-6.19-.36-6.95-2.91-2.92-.77-6.4-.79-6.86-2-1-2.48-.39-5.58-.28-8.42a3.89,3.89,0,0,1,1.08-2c2.78-3.38,1.61-6.09-1.36-8.52-2.8-2.28-5.7-4.45-8.36-6.87-.85-.76-1.71-2.32-1.48-3.26.32-1.31,1.58-3.26,2.55-3.34,1.53-.11,3.16,1.12,4,1.46,2.22-1.3,4.38-3.62,5.87-3.25,5.37,1.36,7.71.3,9.79-4.83,1-2.43,3-6,4.83-6.21,3.62-.44,8,0,10.22,4.19,1,1.86,2,3.74,3,5.57,1.63,2.82,3.46,3,5.65.48,1.26-1.46,2.89-2.59,4.12-4.06,1.45-1.74,3.14-3.53,3.85-5.6,1.26-3.67,1.59-7.66,2.84-11.33.84-2.45,18.32-7.21,20.8-6.17a31.44,31.44,0,0,0,4.34,1.14c-.08-1.58.19-3.29-.32-4.71-2-5.5-1.79-6.56,3.24-9.51,3.38-2,6.07-4.22,6.83-8.46.18-1,2.43-2.26,3.86-2.45a18.8,18.8,0,0,1,6.25.6c1.23.26,3.1.83,3.38,1.68,1.41,4.37,4.49,6.13,8.7,6.77a3.12,3.12,0,0,1,2,1.6c1.72,3.78,4.33,2.54,6.77,1.18,2.91-1.62,4.08-4.28,3.74-7.64s1.44-4.78,4.66-5.36a91.06,91.06,0,0,0,10.85-2.83c3.6-1.12,6.85-1.58,10.32.84,1.39,1,5,1.27,5.67.39,4.23-5.4,8.1-5.27,12.87-.73,1.54,1.46,4,1.67,4.45-1.84s1.38-7,1.47-10.59c.07-2.48-.08-5.83-1.59-7.32-3.79-3.72-4-7.51-2.18-11.92,1.31-3.1.24-5.06-1.95-7.56-2.77-3.17-4.49-7.28-6.53-11-.27-.51.11-1.5.42-2.16,2.47-5.34,5-10.65,7.57-16.09a10.19,10.19,0,0,0,1.34,2.23c3.28,3.43,5.28,9.12,11.64,7.48,3.55-.91,5.58.27,6.62,3.5.92,2.89,2.33,2.71,4.27,1s4.07-3.42,7-5.88c.8,2.73,1.43,4.46,1.8,6.24,1.08,5,3.78,6.93,8.81,5.93,1.76-.36,3.45-1.1,5.21-1.46,2.8-.56,5.63-.94,9.2-1.53.12-.9.41-2.81.64-4.72s.42-3.9.63-5.85a7.22,7.22,0,0,1,2.64,3.57c3.37,8.78,3.56,8.9,11.22,3.56,3.14-2.18,4.55-1.45,5.17,2.14.53,3.06,1.47,5.39,5.34,2.93,1-.64,2.81-.12,4.23,0,1.77.18,3.57.88,5.28.68,1.28-.14,3.07-1.09,3.48-2.14s-.45-2.78-1.26-3.83c-1.91-2.51-4.22-4.71-6.17-7.2s-2.38-5.23.12-7.74,2-4.63-.25-7a31.65,31.65,0,0,1-3.26-5.15l19.52-9.82c-.29-1.93-1.22-4-.61-4.7,2.64-3.09,5.73-5.79,8.84-8.81,1.41,1.89,2.43,3.25,3.62,4.86l3.17-7.25c3.8,4.41,7,8.11,11,12.74,1-3.2,2.41-5.72,2.62-8.34.22-2.86,1.19-4.55,3.86-5.33s3.25-2.57,2.66-5.26a75.67,75.67,0,0,1-1-8.41c2.69,1,5.48,1.89,8,3.17,4,2,6.63,1.17,8-3.14a21.17,21.17,0,0,0,1-6.22c.07-6.17,0-12.35-.16-18.52-.17-7.24,3.24-10.3,10.28-9.61,2,.2,4.2-.67,6.21-1.34a30,30,0,0,0,5.27-2.45,15.91,15.91,0,0,0,3.09-2.34c2.88-2.7,5.24-6.52,8.63-8,6.61-2.88,10.8-6.27,8.48-14.13a4.12,4.12,0,0,1,.11-2.25c1.16-3.64,3.12-6.65,7.28-7.09,3.27-.35,8.73,3.82,8.14,7.1-1.17,6.52,2.11,9.48,7.09,11.9a4.49,4.49,0,0,1,1.53,1.64c1.87,2.89,4.11,2.39,6.64,1,2.06-1.16,4.25-2.09,6.38-3.14,1.13-.56,2.25-1.15,3.37-1.72-.82-1.12-1.42-2.53-2.49-3.3-5.07-3.62-5.23-5.42-.32-9.16,2.27-1.72,3.69-3.37,2.23-6.44-1.35-2.82,3.64-12.77,6.65-13.64a6,6,0,0,1,2.24-.06c6.06.59,7.65-.37,9.47-6.15a48.33,48.33,0,0,0,1.66-7,12.12,12.12,0,0,1,6.11-9c3.8-2.21,5.74-5.44,6.57-9.75.69-3.59,2.62-6.22,6.94-6.54,2-.14,3.89-1.55,6.73-2.78-7.12-5.17-13.13-9.69-19.31-14-3.69-2.55-6.24-6.64-4.8-9.2,1.88-3.36,4.18-6.49,6.41-9.89l4.06,1.23c1.65-6.91,0-14.79,6.15-18.42-1-2.59-2.84-5.12-2.21-6.25,4.43-7.95,15.54-7.79,20.26-.07.66,1.07,2.9,2.52,3.14,2.32,3.44-3,6.28-.81,9.51.45a7.18,7.18,0,0,0,5.84-.52c1-.68.63-3.41.68-5.22a14.38,14.38,0,0,0-.64-2.63c-1.17-6.14,3-15.13,8.28-16s6.4-3.43,6-8.05c-.61-6.82.55-13,5.13-18.68,1.74-2.15,2.43-6.09,1.94-8.92-.9-5.13-3.18-10-4.63-15a62.83,62.83,0,0,1-1.22-7.67l1.54-.47c2.72,2.35,5.38,4.76,8.16,7,4.48,3.66,8.85,5.23,14.86,2.18,6.21-3.14,13-2.63,18.57,2.46,2.64,2.43,5.16,3.05,8.63,1.9,1.78-.6,4.12,0,6.07.52,5,1.36,5.86,5.73,6.58,9.9.76,4.36,2.3,7.71,7,8.85,2.32.55,4.83,1.11,6.72,2.43,2.8,2,5.13,4.6,8.23,7.48,1.36-1.68,3.08-3.65,4.63-5.74,5.43-7.35,18-8.61,24.94-2.7,1.59,1.37,4,2.64,6,2.54,5.34-.29,9.32,1.72,12.75,5.54,2.77,3.09,5.87,2.48,8.91.38,1.07-.75,2-1.71,3.18-2.73,1.5,1.13,2.87,2.05,4.1,3.12,5.1,4.41,5.65,4.38,9-1.37,1.67-2.88,3.43-4.48,7.26-3.58,2,.47,4.7-.6,6.62-1.76,7.33-4.4,9-4.09,12.87,3.32a8.07,8.07,0,0,1,.55,1.24c1,3.22,3.18,4.71,6.61,5.17,6,.82,9.57,4.69,11.51,10.25,2.39,6.81,2.14,13.23-2,19.46-1.34,2-2.48,4.73-2.28,7,.68,7.83.79,7.58-5.72,11.31a8.39,8.39,0,0,0-3.46,5.9c-.19,2.76,2.28,3.73,5.09,3.8,5,.12,6.64,1.9,7.23,6.76a61.09,61.09,0,0,0,1.34,8.46,12.94,12.94,0,0,1-3.06,12.6c-3,3.41-2.75,5.76,1.28,8.13,6.23,3.66,12.57,7.16,19,10.4,4.51,2.26,15.32-.19,18.51-3.79a1.72,1.72,0,0,0,.52-1.16c-.79-3.63,1.9-4.67,4.33-5.91,5.39-2.75,6.19-5.57,3-10.83-1-1.67-2.66-3.07-3.28-4.86-.94-2.73-2.26-5.93-1.62-8.49,1.37-5.51-1.35-13,6.59-15.84.38-.13.52-1,.7-1.62,1.45-4.7,2.8-9.42,4.37-14.08a11.38,11.38,0,0,1,2.34-3.74c2-2.3,4.42-4.31,6.35-6.69,3.33-4.09,6.31-8.46,9.67-12.52,1.07-1.28,2.9-1.92,4.38-2.86.73,1.52,1.79,3,2.12,4.56.62,3.07,1.31,5.73,5.32,5.11s6.47.77,8.5,4.34c1.87,3.27,4.5,3,6.71-.29,1.52-2.23,2.54-5,4.46-6.74,2.61-2.44,2.62-4.18.37-6.82-2.87-3.38-2.12-5.08,2.29-6.21a17.79,17.79,0,0,0,2.61-.6C1612.85,856.54,1614.15,850.33,1611.73,846.74Z" transform="translate(-386.26 -533.22)"/><path d="M389.14,769.93V747h132.1v22.94H500.76V884.42H472.5V831H440.14v25H415.76l-7.37-16.39q-5.94-13.51-5.94-18.84,0-8.81,9.22-11.26V769.93Zm83.36,0H440.14V808H472.5Zm28.25,154H473.06V878.16h27.69Z" transform="translate(-386.26 -533.22)"/><path d="M614,802.29H561.79q-7.57,0-7.58,5.53,0,5.32,5.74,9.83A81.6,81.6,0,0,1,576.74,816q18.64,0,30.32,8.81t11.67,22.12q0,7.78-1.84,11.88H588.62a22,22,0,0,0,2-10.25q0-3.89-4.1-6.45t-10.85-2.56q-10.44,0-16,3.89a12,12,0,0,0-5.53,10.24q0,16.59,27.86,16.59,10.44,0,28.26-3.89V890a143.32,143.32,0,0,1-29.49,3.48q-27,0-41.37-12t-14.34-28q0-16.17,13.52-26.63-14.34-8.39-14.34-22.52,0-11.88,8.81-18.23t22.73-6.35h29.5v-9.83H509V747H634.09v22.94H614Z" transform="translate(-386.26 -533.22)"/><path d="M621.8,769.93V747h69.84v22.94H671.16V884.42H642.28V769.93Z" transform="translate(-386.26 -533.22)"/><path class="cls-3" d="M758.18,812.05a68.91,68.91,0,0,1,5.12-26.3,73.79,73.79,0,0,1,8.87-15.88c-.61-.16-1.22-.33-1.84-.47a44.57,44.57,0,0,0-9.48-1.06,36.08,36.08,0,0,0-17.5,4.06A38.6,38.6,0,0,0,731,782.94a46.51,46.51,0,0,0-7.44,14.7A55.53,55.53,0,0,0,721,814a53.42,53.42,0,0,0,2.9,17.51,46.72,46.72,0,0,0,8.22,14.79,41.06,41.06,0,0,0,12.77,10.25,34.88,34.88,0,0,0,16.34,3.87,43.14,43.14,0,0,0,9.67-1.16,37,37,0,0,0,4-1.18,72.56,72.56,0,0,1-16.71-46Z" transform="translate(-386.26 -533.22)"/><path class="cls-3" d="M794.51,788.84a40.7,40.7,0,0,0-2-3.77,48.06,48.06,0,0,0-4.61,10.25,55.47,55.47,0,0,0,.1,33.94,46.45,46.45,0,0,0,6.13,12.4c.34-.7.69-1.4,1-2.15l21.85,12.57a42.74,42.74,0,0,1-2.3,4.59,39.11,39.11,0,0,0,10.65,1.41,35.77,35.77,0,0,0,17.11-4A38.72,38.72,0,0,0,855,843.57a46.85,46.85,0,0,0,7.74-14.79,55,55,0,0,0,2.61-16.73,53.74,53.74,0,0,0-2.8-17.21,47.5,47.5,0,0,0-7.93-14.7A38,38,0,0,0,842,770a36.57,36.57,0,0,0-16.73-3.77,37.82,37.82,0,0,0-13.9,2.47,51.6,51.6,0,0,1,3.62,6Z" transform="translate(-386.26 -533.22)"/><path d="M795.5,780.62a45.25,45.25,0,0,0-3,4.45,40.7,40.7,0,0,1,2,3.77L815,774.72a51.6,51.6,0,0,0-3.62-6,32,32,0,0,0-3.32,1.5A38.16,38.16,0,0,0,795.5,780.62Z" transform="translate(-386.26 -533.22)"/><path d="M776.65,860.11c-.61-.67-1.19-1.36-1.76-2.05a37,37,0,0,1-4,1.18,43.14,43.14,0,0,1-9.67,1.16,34.88,34.88,0,0,1-16.34-3.87,41.06,41.06,0,0,1-12.77-10.25,46.72,46.72,0,0,1-8.22-14.79A53.42,53.42,0,0,1,721,814a55.53,55.53,0,0,1,2.52-16.34,46.51,46.51,0,0,1,7.44-14.7,38.6,38.6,0,0,1,12.38-10.54,36.08,36.08,0,0,1,17.5-4.06,44.57,44.57,0,0,1,9.48,1.06c.62.14,1.23.31,1.84.47a73.94,73.94,0,0,1,5.25-6.37A66.79,66.79,0,0,1,792,751.72q-13-7-30.39-7-16.07,0-28.63,6a66.7,66.7,0,0,0-34.52,37.62,70.18,70.18,0,0,0,.39,50.67,74.85,74.85,0,0,0,13.73,22.63,70.14,70.14,0,0,0,21,16.15A58.62,58.62,0,0,0,760.47,884a71.53,71.53,0,0,0,17-2.13,70.25,70.25,0,0,0,16.34-6.19c.59-.32,1.16-.67,1.74-1A66.7,66.7,0,0,1,776.65,860.11Z" transform="translate(-386.26 -533.22)"/><path d="M795.09,839.51c-.31.75-.66,1.45-1,2.15.54.79,1.11,1.56,1.7,2.3a39.1,39.1,0,0,0,12.57,10.25,33.17,33.17,0,0,0,6.28,2.46,42.74,42.74,0,0,0,2.3-4.59Z" transform="translate(-386.26 -533.22)"/><path class="cls-4" d="M785.25,812.05a55,55,0,0,1,2.61-16.73,48.06,48.06,0,0,1,4.61-10.25,32,32,0,0,0-4.54-6,32.78,32.78,0,0,0-8.32-6.29,37.81,37.81,0,0,0-7.44-2.92,73.79,73.79,0,0,0-8.87,15.88,68.91,68.91,0,0,0-5.12,26.3,72.56,72.56,0,0,0,16.71,46,35.45,35.45,0,0,0,14-9,29.49,29.49,0,0,0,5.19-7.43,46.45,46.45,0,0,1-6.13-12.4A55.08,55.08,0,0,1,785.25,812.05Z" transform="translate(-386.26 -533.22)"/><path class="cls-5" d="M894.82,785.84a73.16,73.16,0,0,0-13.54-22.43,67.73,67.73,0,0,0-21-16,60.33,60.33,0,0,0-27.17-6.09,63.51,63.51,0,0,0-26.89,5.7,72.58,72.58,0,0,0-6.77,3.59c.81.43,1.61.88,2.39,1.35a54.52,54.52,0,0,1,17,15.62,37.86,37.86,0,0,1,13.9-2.47,36.41,36.41,0,0,1,16.73,3.77A37.92,37.92,0,0,1,862,779.07a47.51,47.51,0,0,1,7.93,14.7,53.51,53.51,0,0,1,2.8,17.21,54.94,54.94,0,0,1-2.61,16.73,47.08,47.08,0,0,1-7.73,14.8,39.05,39.05,0,0,1-12.57,10.54,35.92,35.92,0,0,1-17.12,4,39.17,39.17,0,0,1-10.65-1.4,41.72,41.72,0,0,1-7.08,9,59.79,59.79,0,0,1-12,9c.72.37,1.43.75,2.16,1.1a62.44,62.44,0,0,0,27.37,5.9,63.32,63.32,0,0,0,26.88-5.71,66.78,66.78,0,0,0,21.27-15.28,71.15,71.15,0,0,0,13.93-22,69.5,69.5,0,0,0,5-26.21A70.67,70.67,0,0,0,894.82,785.84Z" transform="translate(-386.26 -533.22)"/><path d="M777.42,763.5a73.94,73.94,0,0,0-5.25,6.37,37.81,37.81,0,0,1,7.44,2.92,32.78,32.78,0,0,1,8.32,6.29,32,32,0,0,1,4.54,6,45.25,45.25,0,0,1,3-4.45,38.16,38.16,0,0,1,12.57-10.44,32,32,0,0,1,3.32-1.5,54.63,54.63,0,0,0-17-15.62c-.78-.47-1.58-.91-2.39-1.34A66.79,66.79,0,0,0,777.42,763.5Z" transform="translate(-386.26 -533.22)"/><path d="M814.64,856.67a33.17,33.17,0,0,1-6.28-2.46A39.1,39.1,0,0,1,795.79,844c-.59-.74-1.16-1.51-1.7-2.3a29.49,29.49,0,0,1-5.19,7.43,35.45,35.45,0,0,1-14,9c.57.69,1.15,1.38,1.76,2.05a66.7,66.7,0,0,0,18.92,14.57,60.46,60.46,0,0,0,12-9A41.54,41.54,0,0,0,814.64,856.67Z" transform="translate(-386.26 -533.22)"/><path d="M914.34,746.58l37.14,103.86,36.74-103.86h28L962.69,883.9H940.26l-54-137.32Z" transform="translate(-386.26 -533.22)"/><path d="M993.9,883.9V746.58h26.69V883.9Z" transform="translate(-386.26 -533.22)"/><path d="M1027.92,883.9V746.58h49.9q16.82,0,29.49,5.42a59.27,59.27,0,0,1,33.94,36.46,81.7,81.7,0,0,1,4.26,26.59,80.33,80.33,0,0,1-4.74,28.33A60.42,60.42,0,0,1,1127.13,865,61.32,61.32,0,0,1,1105.76,879a75.36,75.36,0,0,1-27.94,4.93Zm90.7-68.85a58.55,58.55,0,0,0-2.7-18.18,40.81,40.81,0,0,0-7.93-14.31,35.37,35.37,0,0,0-12.86-9.29,43.48,43.48,0,0,0-17.31-3.28h-23.21V860.5h23.21a41.83,41.83,0,0,0,17.5-3.48,35.8,35.8,0,0,0,12.76-9.58,42.61,42.61,0,0,0,7.84-14.4A58,58,0,0,0,1118.62,815.05Z" transform="translate(-386.26 -533.22)"/><path d="M500.56,935.94h-43.9v113.91h-26.5V935.94h-43.9v-23.4h114.3Z" transform="translate(-386.26 -533.22)"/><path d="M496.28,1049.85V912.54H557a39,39,0,0,1,17.5,4,45.41,45.41,0,0,1,13.83,10.44,49.55,49.55,0,0,1,9.09,14.7,44.29,44.29,0,0,1,3.29,16.54A45.65,45.65,0,0,1,594,982.45,38.24,38.24,0,0,1,576,998.21l31.33,51.64h-30l-28-46H523v46ZM523,980.42h33.46a14.13,14.13,0,0,0,6.86-1.74,17.43,17.43,0,0,0,5.51-4.74,23.51,23.51,0,0,0,3.68-7.06,27.43,27.43,0,0,0,1.35-8.7,24.87,24.87,0,0,0-1.54-8.9,23.4,23.4,0,0,0-4.16-7.06,19,19,0,0,0-6-4.64,15.63,15.63,0,0,0-6.86-1.64H523Z" transform="translate(-386.26 -533.22)"/><path d="M632,912.54h23.59l52.22,137.31H680.37l-12.77-34.23h-48l-12.57,34.23H579.61Zm30.75,84.32-18.95-54-19.73,54Z" transform="translate(-386.26 -533.22)"/><path d="M680.83,980.23a71.17,71.17,0,0,1,4.54-24.86,67.71,67.71,0,0,1,13.25-22,67,67,0,0,1,21.27-15.66q12.57-6,28.63-6,18.94,0,32.78,8.32a53.18,53.18,0,0,1,20.6,21.66l-20.51,14.12a34.85,34.85,0,0,0-6.57-9.77,32.73,32.73,0,0,0-8.32-6.28,37.21,37.21,0,0,0-9.28-3.39,44,44,0,0,0-9.48-1.06,36,36,0,0,0-17.5,4.06A38.49,38.49,0,0,0,717.86,950a46.31,46.31,0,0,0-7.44,14.7A55.48,55.48,0,0,0,707.9,981a53.41,53.41,0,0,0,2.9,17.5,46.88,46.88,0,0,0,8.22,14.8,41.2,41.2,0,0,0,12.77,10.25,34.88,34.88,0,0,0,16.34,3.87,43.21,43.21,0,0,0,9.67-1.16,36.88,36.88,0,0,0,9.57-3.68,36,36,0,0,0,8.42-6.48,29.85,29.85,0,0,0,6.18-9.57l21.86,12.57a41.2,41.2,0,0,1-9.38,13.63,59.92,59.92,0,0,1-13.73,10,69.8,69.8,0,0,1-16.34,6.19,71.53,71.53,0,0,1-17,2.13,58.49,58.49,0,0,1-26.89-6.19,69.85,69.85,0,0,1-21-16.15A74.85,74.85,0,0,1,685.76,1006,70.49,70.49,0,0,1,680.83,980.23Z" transform="translate(-386.26 -533.22)"/><path d="M809,1049.85V912.73h26.69V977.9l57.63-65.36h29.4l-52.61,60.92L926,1049.85h-30l-42.75-59.37-17.59,18.37v41Z" transform="translate(-386.26 -533.22)"/><path d="M992.24,1026.45v23.4H896.89V912.54H990.5v23.4H923.58V969h57.83v21.66H923.58v35.78Z" transform="translate(-386.26 -533.22)"/><path d="M998.22,1049.85V912.54H1059a39,39,0,0,1,17.5,4,45.41,45.41,0,0,1,13.83,10.44,49.34,49.34,0,0,1,9.09,14.7,44.29,44.29,0,0,1,3.29,16.54,45.73,45.73,0,0,1-6.67,24.27,38.26,38.26,0,0,1-18.09,15.76l31.33,51.64h-30l-28-46h-26.3v46Zm26.69-69.43h33.46a14.08,14.08,0,0,0,6.86-1.74,17.57,17.57,0,0,0,5.52-4.74,23.72,23.72,0,0,0,3.67-7.06,27.43,27.43,0,0,0,1.35-8.7,24.87,24.87,0,0,0-1.54-8.9,23.4,23.4,0,0,0-4.16-7.06,19,19,0,0,0-6-4.64,15.6,15.6,0,0,0-6.86-1.64h-32.3Z" transform="translate(-386.26 -533.22)"/><path d="M742,770.61l-52.18-1.06q.54-11.19,1.07-22.36l61.75-1.07Q747.28,758.38,742,770.61Z" transform="translate(-386.26 -533.22)"/><circle class="cls-5" cx="778" cy="197.67" r="14.16"/><circle class="cls-5" cx="924.29" cy="82.05" r="14.16"/><circle class="cls-6" cx="923.7" cy="81.46" r="20.64"/><circle class="cls-7" cx="486.92" cy="535.29" r="10.64"/><circle class="cls-8" cx="306.18" cy="577.15" r="7.38"/></svg>